<mxfile host="app.diagrams.net" modified="2023-09-11T14:29:58.839Z" agent="Mozilla/5.0 (Windows NT 10.0; Win64; x64) AppleWebKit/537.36 (KHTML, like Gecko) Chrome/113.0.0.0 Safari/537.36" version="21.7.4" etag="OYDsy9W17k_5VUvWVO3n" type="github">
  <diagram name="第 1 页" id="P-M3QEKBLak_mOAbtz48">
    <mxGraphModel>
      <root>
        <mxCell id="0" />
        <mxCell id="1" parent="0" />
      </root>
    </mxGraphModel>
  </diagram>
</mxfile>
